<svg width="318" height="19" viewBox="0 0 318 19" fill="none" xmlns="http://www.w3.org/2000/svg">
<path d="M53.4542 10.8435C85.346 8.6419 117.192 7.62696 149.153 6.77207C379.917 0.599783 34.2495 10.0331 246.868 4.30453C257.822 4.00941 268.772 3.57875 279.727 3.35864C283.784 3.27714 287.92 2.61239 291.9 3.39977C293.504 3.71698 288.827 4.58519 287.212 4.83917C279.568 6.04138 271.877 6.94516 264.182 7.75908C231.11 11.2571 210.737 12.6855 176.008 13.5167C133.704 14.5292 104.073 13.8453 62.0494 11.995C48.0971 11.3807 34.149 10.603 20.2247 9.52749C14.0859 9.05334 7.86466 8.80538 1.88265 7.34783C0.983942 7.12885 3.10358 5.69621 4.02118 5.57943C17.0282 3.92399 65.4724 2.49871 71.7962 2.37163C145.892 0.882562 220.388 1.52374 294.368 6.31969C300.677 6.72869 307.002 7.17237 313.245 8.17034C314.449 8.36294 317.483 9.14243 316.494 9.85649C314.287 11.4489 311.192 11.0929 308.515 11.5838C304.911 12.2448 301.282 12.7661 297.658 13.311C290.075 14.4514 282.82 15.6839 275.532 17.5059" stroke="#A9A9A9" stroke-width="2" stroke-linecap="round"/>
</svg>
