<svg width="224" height="144" viewBox="0 0 224 144" fill="none" xmlns="http://www.w3.org/2000/svg">
<path d="M107.82 21.0313C97.7548 16.3285 87.2872 13.2927 76.2288 11.605C67.8429 10.3252 59.3595 8.72655 50.8912 9.22599C36.9168 10.0501 15.388 14.5219 8.14486 29.6304C4.58263 37.0608 4.65526 46.3179 6.67326 54.3072C13.0577 79.5833 32.1262 95.5663 53.81 108.001C82.5271 124.469 109.95 130.912 142.89 131.564C166.296 132.027 194.111 129.911 212.066 111.774C239.378 84.185 209.051 47.3064 185.397 31.486C172.084 22.582 156.957 16.3695 141.692 11.5227C110.786 1.70999 78.7709 -2.14442 46.9085 5.81687C35.4094 8.69007 23.5509 13.1054 14.8053 21.1052C-0.562117 35.162 -0.404798 58.4867 4.92342 76.2829C9.56087 91.7719 24.5134 112.792 36.3688 124.025C65.1846 151.328 40.8067 123.123 67.9985 142.118" stroke="#E37C54" stroke-width="2" stroke-linecap="round"/>
</svg>
